<?xml version="1.0" standalone="no"?>
<!DOCTYPE svg PUBLIC "-//W3C//DTD SVG 20010904//EN"
 "http://www.w3.org/TR/2001/REC-SVG-20010904/DTD/svg10.dtd">
<svg version="1.0" xmlns="http://www.w3.org/2000/svg"
 width="245.000000pt" height="245.000000pt" viewBox="0 0 245.000000 245.000000"
 preserveAspectRatio="xMidYMid meet">
<metadata>
Created by potrace 1.11, written by Peter Selinger 2001-2013
</metadata>
<g transform="translate(0.000000,245.000000) scale(0.100000,-0.100000)"
fill="#000000" stroke="none">
<path d="M262 1851 c-4 -4 -8 -307 -7 -674 l0 -668 80 3 80 3 0 283 0 282 85
0 c178 0 205 -24 394 -339 l138 -231 99 0 c99 0 100 0 88 22 -20 37 -141 223
-149 228 -4 3 -40 57 -80 120 -91 143 -131 194 -183 228 l-40 27 34 10 c123
37 222 136 252 253 7 29 15 50 18 48 3 -3 6 5 6 17 2 17 0 19 -7 7 -5 -8 -10
-10 -10 -4 0 6 3 14 7 18 10 10 11 46 1 40 -4 -3 -8 10 -8 28 0 84 -69 193
-153 242 -87 51 -143 59 -400 61 -130 0 -241 -1 -245 -4z m478 -153 c106 -35
161 -111 159 -221 -1 -102 -52 -181 -147 -225 -52 -24 -68 -26 -197 -26 l-140
-1 0 243 -1 243 156 -4 c85 -2 162 -6 170 -9z"/>
<path d="M1330 1783 l0 -73 355 0 c195 0 355 -2 355 -5 0 -4 -117 -180 -629
-940 -79 -117 -141 -220 -141 -232 l0 -23 503 2 502 3 0 55 c0 93 35 85 -389
84 l-376 -1 22 35 c12 20 88 133 168 251 593 876 590 871 590 895 l0 21 -480
0 -480 0 0 -72z"/>
</g>
</svg>
